<svg width="12" height="12" viewBox="0 0 12 12" fill="none" xmlns="http://www.w3.org/2000/svg">
<g id="car-01">
<path id="Icon" d="M2.5 6.5H4M1 4.5L2 5L2.63532 3.09404C2.76646 2.70063 2.83203 2.50392 2.95364 2.35849C3.06104 2.23007 3.19896 2.13066 3.35475 2.06939C3.53118 2 3.73852 2 4.15321 2H7.84679C8.26148 2 8.46882 2 8.64525 2.06939C8.80104 2.13066 8.93896 2.23007 9.04636 2.35849C9.16797 2.50392 9.23354 2.70063 9.36468 3.09404L10 5L11 4.5M8 6.5H9.5M3.4 5H8.6C9.44008 5 9.86012 5 10.181 5.16349C10.4632 5.3073 10.6927 5.53677 10.8365 5.81901C11 6.13988 11 6.55992 11 7.4V8.75C11 8.98233 11 9.09849 10.9808 9.19509C10.9019 9.59178 10.5918 9.90188 10.1951 9.98079C10.0985 10 9.98233 10 9.75 10H9.5C8.94772 10 8.5 9.55228 8.5 9C8.5 8.86193 8.38807 8.75 8.25 8.75H3.75C3.61193 8.75 3.5 8.86193 3.5 9C3.5 9.55228 3.05228 10 2.5 10H2.25C2.01767 10 1.90151 10 1.80491 9.98079C1.40822 9.90188 1.09812 9.59178 1.01921 9.19509C1 9.09849 1 8.98233 1 8.75V7.4C1 6.55992 1 6.13988 1.16349 5.81901C1.3073 5.53677 1.53677 5.3073 1.81901 5.16349C2.13988 5 2.55992 5 3.4 5Z" stroke="#D77F33" stroke-width="1.5" stroke-linecap="round" stroke-linejoin="round"/>
</g>
</svg>
