<svg width="138" height="42" viewBox="0 0 138 42" fill="none" xmlns="http://www.w3.org/2000/svg">
<g id="DM_logo_130x40">
<g id="Layer 2">
<g id="Layer 1">
<path id="Path 1621" d="M7.76195 4.13708V28.0374C7.74476 28.4755 7.87709 28.9065 8.13734 29.2601C8.3976 29.6136 8.77043 29.8689 9.19503 29.9843C10.219 30.3455 11.273 30.6162 12.3446 30.7933C13.4156 31.0029 14.5027 31.1204 15.594 31.1444C18.1272 31.1788 20.6169 30.4872 22.7668 29.152C26.3427 26.9242 28.1307 23.1357 28.1307 17.7867C28.1614 15.0242 27.5861 12.2885 26.445 9.77057C25.4365 7.47679 23.8336 5.49158 21.8008 4.01863C19.2246 2.25468 16.1518 1.35351 13.0272 1.44565C10.575 1.44565 9.01987 1.71321 8.35641 2.20919C8.12063 2.46222 7.94407 2.76418 7.83944 3.09333C7.73482 3.42247 7.70473 3.77063 7.75134 4.11276M4.17608 5.95498C4.27548 4.75644 4.00828 3.55599 3.40965 2.51165C3.09011 2.11874 2.68761 1.80078 2.23078 1.58035C1.77395 1.35993 1.27399 1.24244 0.766429 1.23626C0.252646 1.18338 0 1.0311 0 0.763541C0 0.495984 0.199569 0.298225 0.605076 0.298225L2.44153 0.396576H4.0763C5.29798 0.433313 6.52074 0.406839 7.73966 0.317261L9.90838 0.114214C10.8432 0.0380713 11.8828 0 13.0272 0C19.3773 0 24.1436 1.59547 27.3261 4.78641C28.7773 6.25456 29.9125 8.00235 30.6622 9.92277C31.4118 11.8432 31.7601 13.8958 31.6858 15.955C31.7152 18.7546 31.0593 21.519 29.775 24.0092C28.5612 26.3764 26.7225 28.369 24.4567 29.7728C21.6544 31.5395 18.4017 32.4671 15.0855 32.4452C14.6789 32.4452 13.9592 32.4071 12.9401 32.3236C10.856 32.1826 9.04252 32.1121 7.49975 32.1121C6.05018 32.101 4.60139 32.1826 3.16232 32.3564C2.60289 32.4325 2.1666 32.478 1.83646 32.4938C1.29189 32.4938 1.02438 32.3564 1.02438 31.982C1.02438 31.7303 1.23669 31.559 1.66767 31.4701C2.0724 31.4336 2.46452 31.3108 2.81745 31.1101C3.17039 30.9094 3.47589 30.6355 3.71325 30.3069C4.10578 29.2116 4.2624 28.0463 4.1729 26.8868L4.17608 5.95498Z" fill="#4A3C31"/>
<path id="Path 1622" d="M37.7637 3.05298C38.1366 3.05298 38.5199 3.36601 38.9133 3.99207L39.4802 4.88569C39.6138 5.05458 39.694 5.25926 39.7106 5.47368C39.6413 6.05607 39.3702 6.59613 38.9441 7.00076C38.3921 7.64163 37.9558 7.96312 37.6257 7.96312C37.2956 7.96312 36.8593 7.64586 36.3848 7.02402C35.9791 6.62324 35.7109 6.10509 35.6183 5.54347C35.7293 4.95548 36.0288 4.41924 36.4718 4.01534C37.021 3.37376 37.4516 3.05298 37.7637 3.05298ZM39.2424 28.3905C39.178 29.1465 39.3016 29.9067 39.6023 30.6039C39.7943 30.8224 40.0296 30.9989 40.2934 31.1225C40.5572 31.2461 40.8437 31.314 41.1351 31.322L42.2083 31.4362C42.7752 31.5123 43.0438 31.7111 43.0363 32.0316C43.0289 32.352 42.806 32.4133 42.3994 32.4133C41.8868 32.4158 41.3746 32.3825 40.8666 32.3139C40.442 32.3139 39.9006 32.2685 39.2265 32.2685H37.6947L36.0164 32.2917C35.7599 32.2971 35.504 32.3176 35.25 32.3531C34.8434 32.3985 34.56 32.4218 34.4071 32.4218C33.9825 32.4218 33.7702 32.2769 33.7702 31.9872C33.7735 31.8678 33.8173 31.7531 33.8944 31.6617C33.9715 31.5703 34.0774 31.5076 34.1948 31.4838L34.6311 31.3463C34.865 31.2858 35.0828 31.1753 35.2694 31.0225C35.4561 30.8696 35.607 30.678 35.7117 30.4611C35.9519 29.8174 36.0563 29.1312 36.0185 28.4455V18.3206C36.0945 17.4687 35.9687 16.611 35.6512 15.8164C35.3986 15.4272 34.8848 15.2358 34.0419 15.2358C33.4517 15.2358 33.1683 15.1216 33.1842 14.8847C33.2002 14.6478 33.5982 14.45 34.3795 14.2206C35.5307 13.7976 36.6476 13.287 37.7202 12.6935L38.9611 12.1129C39.1607 12.1129 39.2605 12.3117 39.2605 12.6702L39.2424 28.3905Z" fill="#4A3C31"/>
<path id="Path 1623" d="M51.0797 13.4276C50.4935 13.4324 49.9169 13.577 49.3984 13.8493C48.8798 14.1216 48.4342 14.5137 48.0989 14.9928C47.2705 16.0904 46.8432 17.4369 46.8877 18.8094C46.8148 20.484 47.2703 22.1394 48.1902 23.5429C48.5431 24.1053 49.0331 24.5697 49.6146 24.8927C50.1961 25.2157 50.8502 25.3869 51.516 25.3904C52.1089 25.4033 52.6963 25.2749 53.2294 25.0159C53.7625 24.7569 54.2257 24.3748 54.5806 23.9014C55.4049 22.7673 55.8168 21.3871 55.7483 19.9886C55.8176 18.3138 55.3478 16.6609 54.4076 15.2709C54.0526 14.7064 53.5603 14.2404 52.9763 13.9161C52.3923 13.5919 51.7355 13.4198 51.0669 13.416M46.8006 33.1697C46.1386 33.4044 45.5679 33.8416 45.1702 34.4188C44.7726 34.996 44.5682 35.6837 44.5862 36.3835C44.5677 36.9611 44.699 37.5337 44.9675 38.046C45.236 38.5582 45.6327 38.9928 46.1191 39.3076C47.4039 40.0771 48.8906 40.4454 50.3875 40.3652C52.2339 40.4314 54.0651 40.01 55.6952 39.1437C56.2996 38.8817 56.8189 38.4574 57.1952 37.9182C57.5714 37.379 57.7897 36.7463 57.8257 36.0906C57.8257 34.6397 56.7302 33.9226 54.535 33.9226C54.2441 33.9226 53.4161 33.8772 52.0679 33.7852L49.6158 33.5948C48.6622 33.5536 47.7164 33.4049 46.7964 33.1517M45.7773 32.8344V32.6737C45.3243 32.3874 44.9454 31.9988 44.6712 31.5395C44.3969 31.0802 44.2351 30.563 44.1988 30.0299C44.2234 29.0881 44.4864 28.1678 44.9633 27.3544C45.4402 26.5409 46.1156 25.8607 46.9269 25.3767C45.9245 24.8057 45.1022 23.9672 44.5524 22.9556C44.0027 21.944 43.7475 20.7995 43.8156 19.6512C43.7904 18.7197 43.9592 17.7932 44.3113 16.9299C44.6633 16.0667 45.191 15.2854 45.8611 14.6353C46.5336 13.9708 47.335 13.4499 48.2164 13.1044C49.0978 12.7589 50.0406 12.5961 50.9873 12.626C52.7533 12.6014 54.4887 13.0866 55.984 14.023C56.319 14.2868 56.7136 14.465 57.1336 14.5422C57.7979 14.5023 58.4412 14.2949 59.003 13.9394C59.5434 13.7004 59.9865 13.2858 60.2598 12.7635L60.5666 11.8783C60.5884 11.7977 60.6362 11.7265 60.7025 11.6755C60.7688 11.6245 60.8501 11.5965 60.9339 11.5959C61.1866 11.5959 61.3171 11.7715 61.3171 12.1607C61.2598 12.7776 61.1367 13.3866 60.9498 13.9775C60.7943 14.6232 60.576 15.2522 60.298 15.8557C60.1591 16.1198 59.9646 16.3509 59.728 16.5334C59.4913 16.7159 59.218 16.8454 58.9265 16.9132C58.6272 17.0052 58.4818 17.1501 58.4818 17.3363C58.4882 17.486 58.5113 17.6347 58.5508 17.7794C58.706 18.4214 58.7756 19.081 58.7578 19.7411C58.7502 20.6153 58.5524 21.4776 58.178 22.2683C57.8035 23.059 57.2614 23.7594 56.589 24.3213C55.2201 25.6001 53.4084 26.3029 51.5319 26.283C50.6001 26.2744 49.6713 26.1774 48.7581 25.9932C48.5065 25.9364 48.2496 25.9055 47.9917 25.9012C47.7176 25.931 47.4534 26.0203 47.2177 26.1628C46.982 26.3053 46.7806 26.4976 46.6276 26.7261C46.2113 27.2026 45.9801 27.8119 45.9758 28.4435C45.9705 28.831 46.0928 29.2094 46.324 29.521C46.5552 29.8325 46.8826 30.0599 47.256 30.1684C48.6694 30.5851 50.1438 30.7582 51.6157 30.6802C54.6807 30.6802 56.8442 30.9975 58.106 31.632C58.7154 31.9266 59.2222 32.3964 59.5609 32.9808C59.8997 33.5652 60.0547 34.2373 60.0061 34.9104C59.9835 35.8284 59.7268 36.7255 59.2603 37.5175C58.7939 38.3095 58.1329 38.9702 57.3395 39.4377C55.4106 40.7254 53.1243 41.3768 50.8037 41.3C48.7103 41.3886 46.6286 40.9473 44.7529 40.0172C44.0878 39.7323 43.5182 39.2642 43.1109 38.668C42.7036 38.0717 42.4756 37.372 42.4536 36.6511C42.4536 34.8596 43.5774 33.5874 45.8251 32.8344" fill="#4A3C31"/>
<path id="Path 1624" d="M68.4757 16.3135C70.5598 13.8551 72.7207 12.6234 74.9585 12.6185C76.1218 12.5897 77.2736 12.8545 78.3067 13.3883C79.3397 13.9221 80.2205 14.7076 80.867 15.6716C81.8627 17.0686 82.3531 19.1985 82.3531 22.0538V28.3208L82.4295 29.4354C82.4914 29.9173 82.7221 30.362 83.0811 30.691C83.44 31.0199 83.904 31.212 84.3913 31.2332L85.3721 31.3781C85.7967 31.432 86.0091 31.5769 86.0239 31.8127C86.0388 32.0486 85.7861 32.2939 85.2575 32.2939C84.9524 32.285 84.648 32.2596 84.3456 32.2178C83.8318 32.1564 82.8892 32.1258 81.5028 32.1258L79.2035 32.2019H78.315L77.641 32.2474L77.3225 32.1786C77.2635 32.1406 77.2165 32.0868 77.1866 32.0234C77.1568 31.9601 77.1454 31.8896 77.1537 31.8201C77.1537 31.5759 77.2991 31.4236 77.5783 31.3548L78.2758 31.1719C78.8968 31.0196 79.211 30.4623 79.211 29.4999V21.4838C79.316 19.6928 78.772 17.9237 77.6781 16.4986C77.1487 15.9046 76.4909 15.4381 75.7544 15.134C75.0178 14.8299 74.2215 14.6962 73.4256 14.7431C72.1842 14.7269 70.9739 15.1307 69.9926 15.8884C69.5437 16.1624 69.1688 16.5414 68.9003 16.9926C68.6319 17.4437 68.4781 17.9534 68.4523 18.4772V29.2154C68.5362 30.5204 69.62 31.2311 71.7091 31.3527C72.2229 31.4066 72.4755 31.5737 72.4755 31.8561C72.4755 32.1385 72.2919 32.2908 71.9395 32.2908C71.5388 32.2756 71.1396 32.2349 70.7442 32.1691C70.4533 32.1691 69.7177 32.1237 68.5447 32.1237C66.072 32.1237 64.5929 32.1543 64.1074 32.2157C63.6244 32.2696 63.341 32.2918 63.1722 32.2918C62.8729 32.2918 62.7359 32.1617 62.7476 31.9026C62.7593 31.6435 62.909 31.5589 63.1839 31.4373C63.8065 31.2733 64.3614 30.9181 64.7698 30.4221C65.0868 29.8242 65.2277 29.1493 65.1764 28.4752V18.0056C65.2426 17.2413 65.108 16.473 64.7858 15.7763C64.6081 15.5612 64.3786 15.3944 64.1187 15.2916C63.8588 15.1888 63.577 15.1532 63.2996 15.1883H62.3039C62.221 15.176 62.1406 15.1503 62.0661 15.1121C62.0008 15.084 61.9455 15.0368 61.9076 14.9768C61.8697 14.9168 61.851 14.8467 61.8538 14.7758C61.8538 14.5464 62.0608 14.3941 62.4589 14.3179C63.4972 14.1308 64.5069 13.8109 65.463 13.3661L66.6657 12.7634L67.5702 12.3287C67.7388 12.2231 67.9309 12.1603 68.1296 12.1458C68.413 12.1458 68.5362 12.3668 68.5054 12.8173V13.695L68.4757 16.3135Z" fill="#4A3C31"/>
<path id="Path 1625" d="M90.8437 3.05298C91.211 3.05298 91.6101 3.37024 91.9933 3.99207L92.5602 4.88569C92.6953 5.05441 92.7779 5.25878 92.798 5.47368C92.7198 6.05338 92.4502 6.59066 92.0315 7.00076C91.4795 7.64162 91.0432 7.96312 90.7131 7.96312C90.383 7.96312 89.9467 7.64586 89.4722 7.02402C89.0666 6.62324 88.7983 6.10509 88.7057 5.54347C88.8181 4.95532 89.1191 4.41941 89.5635 4.01639C90.1049 3.37482 90.5316 3.05298 90.8437 3.05298ZM92.3224 28.3915C92.2813 29.1278 92.4178 29.8632 92.7205 30.5362C92.9125 30.7547 93.1478 30.9313 93.4116 31.0548C93.6754 31.1784 93.9619 31.2463 94.2533 31.2543L95.334 31.3685C95.8934 31.4446 96.162 31.6435 96.1461 31.9639C96.1301 32.2843 95.9242 32.3457 95.5176 32.3457C95.005 32.3481 94.4928 32.3149 93.9848 32.2462C93.5602 32.2462 93.0188 32.2008 92.3447 32.2008H90.8118L89.1028 32.2843C88.8463 32.2897 88.5904 32.3102 88.3363 32.3457C87.9298 32.3911 87.6463 32.4144 87.4935 32.4144C87.0689 32.4144 86.8566 32.2695 86.8566 31.9797C86.8599 31.8604 86.9037 31.7457 86.9808 31.6543C87.0579 31.5629 87.1637 31.5002 87.2812 31.4764L87.7175 31.3389C87.9414 31.2716 88.1487 31.158 88.3255 31.0055C88.5024 30.8529 88.645 30.6649 88.744 30.4537C88.9793 29.8075 89.0783 29.1199 89.0348 28.4338V18.3206C89.1107 17.4687 88.9849 16.611 88.6675 15.8164C88.4149 15.4272 87.9011 15.2358 87.0582 15.2358C86.468 15.2358 86.1772 15.1216 86.2005 14.8847C86.2239 14.6478 86.6145 14.45 87.3958 14.2206C88.547 13.7976 89.6638 13.287 90.7365 12.6935L91.9774 12.1129C92.177 12.1129 92.2768 12.3117 92.2768 12.6702L92.3224 28.3915Z" fill="#4A3C31"/>
<path id="Path 1626" d="M101.249 15.421V27.1088C101.121 28.1379 101.348 29.18 101.893 30.0636C102.251 30.4103 102.678 30.6784 103.147 30.8507C103.615 31.023 104.115 31.0957 104.613 31.064C105.441 31.0885 106.262 30.9102 107.004 30.5448L108.207 29.9568L108.345 29.9113C108.528 29.9113 108.628 29.9949 108.628 30.1704C108.628 30.6738 108.007 31.2279 106.79 31.8265C105.728 32.3806 104.554 32.6862 103.357 32.7201C99.7806 32.7201 97.9927 30.8624 97.9927 27.1469V15.421H95.9078C95.5012 15.421 95.3027 15.3067 95.3027 15.0698C95.3027 14.833 95.5023 14.5739 95.9152 14.2302C97.5478 12.9135 98.969 11.3561 100.13 9.61191C100.554 8.92451 100.842 8.58081 101.011 8.58081C101.179 8.58081 101.329 8.78703 101.329 9.19101L101.237 13.2096H106.148C106.697 13.2418 107.242 13.1147 107.72 12.8437C107.877 12.7209 108.058 12.63 108.25 12.5762C108.427 12.5762 108.503 12.6301 108.488 12.8279C108.447 13.0347 108.372 13.2334 108.266 13.4159L107.722 14.7441C107.652 14.9537 107.514 15.1338 107.329 15.2556C107.144 15.3774 106.923 15.4337 106.703 15.4157L101.249 15.421Z" fill="#4A3C31"/>
<path id="Path 1627" d="M120.69 28.8251L124.223 19.229C124.566 18.3544 124.758 17.4278 124.789 16.489C124.815 16.1988 124.783 15.9066 124.694 15.6289C124.606 15.3513 124.464 15.0937 124.276 14.8709C123.693 14.4279 123.008 14.1371 122.283 14.0249C121.907 13.9414 121.716 13.7658 121.716 13.5056C121.711 13.4449 121.719 13.3837 121.741 13.3268C121.764 13.27 121.799 13.219 121.844 13.178C121.889 13.137 121.943 13.107 122.002 13.0904C122.061 13.0739 122.123 13.0712 122.183 13.0826L123.11 13.1588C123.455 13.1968 124.153 13.2127 125.21 13.2127C126.267 13.2127 127.179 13.2127 127.651 13.1672L128.739 13.1292C129.058 13.1292 129.222 13.2666 129.222 13.5342C129.222 13.8018 129.061 13.9234 128.732 14.063C128.245 14.2148 127.799 14.476 127.43 14.8265C127.072 15.3032 126.8 15.8377 126.625 16.4065L118.373 39.6363L118.135 40.3998C118.02 40.8049 117.866 41.0407 117.698 41.102C117.157 41.1903 116.607 41.2211 116.058 41.194C115.001 41.194 114.472 41.0795 114.472 40.8503C114.487 40.758 114.519 40.6694 114.568 40.5895C114.616 40.5097 114.68 40.4402 114.756 40.385C115.875 39.2543 116.824 37.9689 117.575 36.5684C118.256 35.4815 118.668 34.2492 118.778 32.9728C118.629 32.0087 118.329 31.0738 117.89 30.202L112.028 16.6518C111.771 15.9864 111.422 15.3597 110.993 14.7895C110.65 14.4265 110.207 14.1738 109.719 14.064C109.381 13.972 109.205 13.8345 109.205 13.641C109.205 13.3047 109.435 13.1376 109.887 13.1376C110.296 13.1308 110.706 13.1513 111.113 13.199C111.488 13.2444 112.27 13.2677 113.465 13.2677C114.487 13.2934 115.51 13.268 116.53 13.1916C116.913 13.1535 117.196 13.1376 117.365 13.1376C117.79 13.1376 117.994 13.2677 117.994 13.5807C117.994 13.8938 117.58 14.0386 116.744 14.1529C115.909 14.2671 115.349 14.6869 115.349 15.3288C115.448 16.2325 115.707 17.1113 116.116 17.924L120.69 28.8251Z" fill="#4A3C31"/>
<path id="Path 1628" d="M133.862 16.4056H134.306C134.812 16.4056 135.249 16.2226 135.249 15.7415C135.249 15.4052 134.996 15.0699 134.306 15.0699C134.158 15.059 134.01 15.059 133.862 15.0699V16.4056ZM133.862 18.5355H133.241V14.7188C133.603 14.6595 133.969 14.6288 134.336 14.6268C134.755 14.5975 135.173 14.6987 135.531 14.9166C135.649 15.0049 135.744 15.1207 135.807 15.2538C135.869 15.3869 135.898 15.5333 135.891 15.6801C135.893 15.9009 135.817 16.1154 135.677 16.2867C135.537 16.458 135.342 16.5756 135.125 16.6192C135.47 16.6806 135.699 16.9851 135.777 17.5509C135.808 17.879 135.891 18.2001 136.022 18.5027H135.37C135.225 18.1925 135.137 17.8591 135.11 17.5181C135.105 17.4181 135.078 17.3203 135.033 17.231C134.987 17.1417 134.923 17.0629 134.845 16.9997C134.767 16.9364 134.677 16.8901 134.58 16.8638C134.483 16.8374 134.381 16.8315 134.282 16.8466H133.857L133.862 18.5355ZM134.505 13.6116C133.75 13.6334 133.035 13.9529 132.516 14.4997C131.997 15.0466 131.718 15.7762 131.738 16.5283C131.711 16.9082 131.762 17.2897 131.888 17.6491C132.015 18.0085 132.215 18.338 132.475 18.617C132.735 18.896 133.051 19.1185 133.401 19.2707C133.752 19.4229 134.13 19.5014 134.512 19.5014C134.895 19.5014 135.273 19.4229 135.623 19.2707C135.974 19.1185 136.289 18.896 136.549 18.617C136.81 18.338 137.01 18.0085 137.136 17.6491C137.263 17.2897 137.314 16.9082 137.286 16.5283C137.299 16.1544 137.238 15.7816 137.106 15.4314C136.974 15.0812 136.773 14.7606 136.516 14.488C136.259 14.2155 135.95 13.9964 135.607 13.8434C135.265 13.6904 134.895 13.6066 134.52 13.5968L134.505 13.6116ZM134.505 13.0775C135.193 13.0729 135.866 13.272 136.44 13.6495C137.014 14.027 137.463 14.5659 137.729 15.1978C137.995 15.8297 138.067 16.5261 137.935 17.1987C137.803 17.8712 137.474 18.4896 136.988 18.9752C136.503 19.4609 135.884 19.792 135.209 19.9265C134.535 20.061 133.836 19.9928 133.2 19.7306C132.565 19.4685 132.022 19.0241 131.64 18.4539C131.258 17.8838 131.056 17.2135 131.057 16.5283C131.051 16.0747 131.136 15.6245 131.306 15.2041C131.477 14.7837 131.731 14.4015 132.052 14.08C132.373 13.7585 132.756 13.5043 133.177 13.3321C133.598 13.16 134.05 13.0734 134.505 13.0775Z" fill="#4A3C31"/>
<path id="Path 1629" d="M74.3278 35.6813H74.1771C74.0773 35.2583 73.7323 35.0098 72.9362 35.0098H71.45C71.3945 35.5884 71.369 36.1694 71.3736 36.7505V37.7023H73.0359C73.5667 37.7023 73.7482 37.5807 73.8555 37.2137H74.0242V38.4891H73.8555C73.7493 38.138 73.5646 38.0153 73.0359 38.0153H71.3704V40.8781H73.347C73.5682 40.8989 73.7901 40.8466 73.9786 40.7293C74.167 40.6119 74.3114 40.436 74.3894 40.2288H74.5423L74.4043 41.2979C74.2282 41.2581 74.0487 41.2351 73.8682 41.2292H70.0371V41.0917C70.4352 41.0917 70.5732 40.9468 70.5732 40.527V37.8831C70.5732 34.9516 70.535 34.8755 70.0371 34.83V34.6545H73.8226C74.0295 34.6545 74.0911 34.6005 74.141 34.5022H74.3321L74.3278 35.6813Z" fill="#4A3C31"/>
<path id="Path 1630" d="M79.6923 39.9558L82.3461 34.5286H82.5075L82.7835 40.162C82.8217 40.9256 82.8833 41.0081 83.2973 41.0779V41.2227H81.6349V41.0472C82.0415 41.0472 82.1105 40.749 82.1105 40.4063V39.5846L81.9194 36.2259H81.8812L79.5288 41.0049L76.7858 36.2185H76.7402L76.5565 39.1881V40.1197C76.5565 40.7765 76.8251 41.0049 77.1467 41.043V41.2185H75.5088V41.043C76.0141 40.9288 76.0831 40.768 76.1457 39.9442L76.5056 34.4937H76.6276L79.6923 39.9558Z" fill="#4A3C31"/>
<path id="Path 1631" d="M65.6078 39.9557L68.2617 34.5285H68.423L68.699 40.162C68.699 40.9255 68.7914 41.008 69.2128 41.0778V41.2227H67.5547V41.0471C67.9527 41.0471 68.0302 40.7489 68.0302 40.4063V39.5845L67.8466 36.2258L65.4889 41.0091L62.7459 36.2226H62.7003L62.5166 39.1922V40.1239C62.5166 40.7806 62.7767 41.009 63.1068 41.0471V41.2227H61.4551V41.0471C61.9604 40.9329 62.0379 40.7722 62.092 39.9483L62.4593 34.4978H62.6228L65.6078 39.9557Z" fill="#4A3C31"/>
<path id="Path 1632" d="M87.4015 40.9711C89.1562 40.9711 89.8993 39.6122 89.8993 37.918C89.8993 36.2238 89.1328 34.8649 87.4015 34.8649C85.6701 34.8649 84.9111 36.2238 84.9111 37.918C84.9111 39.6122 85.6775 40.9711 87.4015 40.9711ZM87.4015 34.5275C88.0718 34.5258 88.7275 34.7223 89.2857 35.0921C89.8439 35.4619 90.2793 35.9884 90.537 36.6048C90.7947 37.2213 90.863 37.9001 90.7333 38.5553C90.6035 39.2104 90.2816 39.8125 89.8082 40.2853C89.3348 40.7581 88.7312 41.0803 88.0739 41.2112C87.4166 41.3421 86.7351 41.2758 86.1156 41.0206C85.4962 40.7655 84.9667 40.3329 84.5941 39.7778C84.2215 39.2227 84.0226 38.5699 84.0226 37.9021C84.011 37.4565 84.0904 37.0132 84.2559 36.5991C84.4215 36.185 84.6698 35.8087 84.9858 35.4932C85.3018 35.1776 85.6789 34.9292 86.0941 34.7632C86.5094 34.5973 86.9542 34.5171 87.4015 34.5275Z" fill="#4A3C31"/>
<path id="Path 1633" d="M92.7974 38.0553C92.9413 38.0841 93.0871 38.1021 93.2337 38.1092C93.4493 38.117 93.6644 38.0819 93.8662 38.006C94.0681 37.9301 94.2528 37.8149 94.4095 37.6671C94.5662 37.5194 94.6918 37.342 94.779 37.1454C94.8662 36.9488 94.9132 36.7368 94.9173 36.5219C94.9214 36.307 94.8825 36.0934 94.8028 35.8936C94.7232 35.6938 94.6044 35.5118 94.4534 35.3583C94.3024 35.2047 94.1223 35.0826 93.9234 34.9992C93.7246 34.9157 93.511 34.8725 93.2953 34.8721C92.9121 34.8721 92.8356 34.8721 92.8356 35.1894C92.8356 35.624 92.7974 36.1412 92.7974 36.5409V38.0553ZM92.031 37.9495V35.5585C92.031 35.0625 91.9312 34.7949 91.5098 34.7949V34.6268C91.9694 34.6268 92.7836 34.5654 93.2878 34.5654C94.5978 34.5654 95.8239 35.054 95.8239 36.5198C95.7825 36.9425 95.6025 37.3399 95.3115 37.6503C95.0206 37.9608 94.6351 38.1671 94.2146 38.2372L96.3143 40.6695C96.4695 40.8549 96.6781 40.9881 96.9119 41.0513V41.2194C96.6667 41.2194 96.4215 41.174 96.1455 41.174C95.8695 41.174 95.6551 41.2194 95.3791 41.2194V41.0439C95.3791 41.0439 95.4555 40.9984 95.4555 40.9752C95.4408 40.9219 95.4148 40.8725 95.3791 40.8303L93.7772 38.9267C93.659 38.7749 93.5112 38.6485 93.3426 38.5553C93.174 38.462 92.9882 38.4038 92.7964 38.3842V40.5447C92.7964 40.8345 92.9195 41.1095 93.2486 41.1095V41.2152C93.0108 41.2152 92.7274 41.1697 92.3993 41.1697C92.0713 41.1697 91.8325 41.2152 91.6329 41.2152V41.0397C91.9514 41.0397 92.0777 40.7647 92.0777 40.4749L92.031 37.9495Z" fill="#4A3C31"/>
<path id="Path 1634" d="M99.8701 34.8182C99.4943 34.8182 99.3945 35.0932 99.3945 35.3829L99.3404 40.513C99.3404 40.8028 99.4932 41.0778 99.7852 41.0778V41.2226H98.2067V41.0471C98.4752 41.0471 98.6313 40.7721 98.6313 40.4824L98.5771 35.3523C98.5771 35.0625 98.4773 34.7875 98.1016 34.7875V34.6194H99.8637L99.8701 34.8182Z" fill="#4A3C31"/>
<path id="Path 1635" d="M102.682 38.9714H105.065L103.946 35.9182L102.682 38.9714ZM102.529 39.3531L102.222 40.1854C102.176 40.3545 102.155 40.5295 102.161 40.7047C102.161 40.8728 102.33 40.9944 102.567 41.079V41.2239C102.33 41.2239 102.084 41.1858 101.847 41.1858C101.609 41.1858 101.349 41.2239 101.08 41.2239V41.0505C101.556 40.8982 101.625 40.6761 101.792 40.2869L104.092 34.5308H104.214L106.275 40.2869C106.321 40.4716 106.417 40.6403 106.552 40.7749C106.687 40.9094 106.856 41.0047 107.042 41.0505V41.2186C106.758 41.2186 106.467 41.1805 106.184 41.1805C105.901 41.1805 105.617 41.2186 105.335 41.2186V41.0505C105.457 40.9669 105.664 40.8442 105.664 40.7332C105.652 40.5939 105.618 40.4573 105.564 40.3282L105.188 39.3277L102.529 39.3531Z" fill="#4A3C31"/>
<path id="Path 1636" d="M108.697 38.1696C108.697 34.9969 108.697 34.9176 108.145 34.8415V34.6733H109.907V34.8415C109.578 34.8415 109.454 35.1164 109.454 35.4062C109.454 35.8641 109.4 37.2992 109.4 38.1696C109.4 39.0399 109.454 40.1789 109.454 40.9096H111.34C111.605 40.9454 111.875 40.8891 112.104 40.75C112.333 40.611 112.507 40.3977 112.597 40.1461L112.758 40.1916L112.52 41.3295C112.212 41.2741 111.898 41.2486 111.585 41.2533H108.228V41.0778C108.547 41.0778 108.673 40.8028 108.673 40.5131L108.697 38.1696Z" fill="#4A3C31"/>
</g>
</g>
</g>
</svg>
