<svg width="12" height="12" viewBox="0 0 12 12" fill="none" xmlns="http://www.w3.org/2000/svg">
<g id="hourglass-02">
<path id="Icon" d="M9.08128 1H2.91872C2.68747 1 2.5 1.18747 2.5 1.41872C2.5 2.75134 3.02938 4.02938 3.97169 4.97169L4.58128 5.58128C4.64181 5.64181 4.67208 5.67208 4.69375 5.70115C4.82594 5.87846 4.82594 6.12154 4.69375 6.29885C4.67208 6.32792 4.64181 6.35819 4.58128 6.41872L3.97169 7.02831C3.02938 7.97062 2.5 9.24866 2.5 10.5813C2.5 10.8125 2.68747 11 2.91872 11H9.08128C9.31253 11 9.5 10.8125 9.5 10.5813C9.5 9.24866 8.97062 7.97062 8.02831 7.02831L7.41872 6.41872C7.35819 6.35819 7.32792 6.32792 7.30625 6.29885C7.17406 6.12154 7.17406 5.87846 7.30625 5.70115C7.32792 5.67208 7.35819 5.64181 7.41872 5.58128L8.02831 4.97169C8.97062 4.02938 9.5 2.75134 9.5 1.41872C9.5 1.18747 9.31253 1 9.08128 1Z" stroke="#D77F33" stroke-width="1.5" stroke-linecap="round" stroke-linejoin="round"/>
</g>
</svg>
