<svg width="12" height="12" viewBox="0 0 12 12" fill="none" xmlns="http://www.w3.org/2000/svg">
<g id="shield-01">
<path id="Icon" d="M5.65101 10.8074C5.7617 10.872 5.81705 10.9042 5.89516 10.921C5.95578 10.934 6.04422 10.934 6.10484 10.921C6.18295 10.9042 6.2383 10.872 6.349 10.8074C7.32302 10.2391 10 8.45416 10 5.99994V3.60874C10 3.20898 10 3.0091 9.93462 2.83729C9.87686 2.68551 9.78301 2.55007 9.66117 2.4427C9.52325 2.32115 9.3361 2.25097 8.9618 2.11061L6.2809 1.10527C6.17695 1.06629 6.12498 1.0468 6.07151 1.03908C6.02408 1.03222 5.97592 1.03222 5.92849 1.03908C5.87502 1.0468 5.82305 1.06629 5.7191 1.10527L3.0382 2.11061C2.6639 2.25097 2.47675 2.32115 2.33883 2.4427C2.21699 2.55007 2.12314 2.68551 2.06538 2.83729C2 3.0091 2 3.20898 2 3.60874V5.99994C2 8.45416 4.67698 10.2391 5.65101 10.8074Z" stroke="#884E1B" stroke-width="1.5" stroke-linecap="round" stroke-linejoin="round"/>
</g>
</svg>
